{"title":"Maze Runner: The Scorch Trials (2015) CAMRip *Proper* [RUS]","uid":12481096,"size":790709224,"categoryP":"video","categoryS":"movies","magnet":"?xt=urn:btih:e63e7235ac2e483e1075e2702203a46e23563c08&amp;dn=Maze+Runner%3A+The+Scorch+Trials+%282015%29+CAMRip+%2AProper%2A+%5BRUS%5D&amp;tr=udp%3A%2F%2Ftracker.leechers-paradise.org%3A6969&amp;tr=udp%3A%2F%2Fzer0day.ch%3A1337&amp;tr=udp%3A%2F%2Fopen.demonii.com%3A1337&amp;tr=udp%3A%2F%2Ftracker.coppersurfer.tk%3A6969&amp;tr=udp%3A%2F%2Fexodus.desync.com%3A6969","seeders":2,"leechers":1,"uploader":"nbdjod","files":1,"time":1443048441,"description":"Maze Runner: The Scorch Trials (2015) CAMRip *Proper* [RUS]\r\n\r\nMI:\r\nGeneral\r\nFormat                                   : AVI\r\nFormat/Info                              : Audio Video Interleave\r\nFile size                                : 754 MiB\r\nDuration                                 : 2h 3mn\r\nOverall bit rate                         : 851 Kbps\r\nWriting application                      : VirtualDubMod 1.5.10.2 (build 2540/release)\r\nWriting library                          : VirtualDub build 35491/release\r\n\r\nVideo\r\nID                                       : 0\r\nFormat                                   : MPEG-4 Visual\r\nFormat profile                           : Advanced   \r\nFormat settings, BVOP                    : 2\r\nFormat settings, QPel                    : No\r\nFormat settings, GMC                     : No warppoints\r\nFormat settings, Matrix                  : Default (H.263)\r\nMuxing mode                              : Packed bitstream\r\nCodec ID                                 : XVID\r\nCodec ID/Hint                            : XviD\r\nDuration                                 : 2h 3mn\r\nBit rate                                 : 712 Kbps\r\nWidth                                    : 640 pixels\r\nHeight                                   : 352 pixels\r\nDisplay aspect ratio                     : 16:9\r\nFrame rate                               : 29.970 fps\r\nColor space                              : YUV\r\nChroma subsampling                       : 4:2:0\r\nBit depth                                : 8 bits\r\nScan type                                : Progressive\r\nCompression mode                         : Lossy\r\nBits/(Pixel*Frame)                       : 0.105\r\nStream size                              : 630 MiB (84%)\r\nWriting library                          : XviD 73\r\n\r\nAudio\r\nID                                       : 1\r\nFormat                                   : AC-3\r\nFormat/Info                              : Audio Coding 3\r\nMode extension                           : CM (complete main)\r\nFormat settings, Endianness              : Big\r\nCodec ID                                 : 2000\r\nDuration                                 : 2h 3mn\r\nBit rate mode                            : Constant\r\nBit rate                                 : 128 Kbps\r\nChannel(s)                               : 2 channels\r\nChannel positions                        : Front: L R\r\nSampling rate                            : 48.0 KHz\r\nCompression mode                         : Lossy\r\nStream size                              : 113 MiB (15%)\r\nAlignment                                : Split accross interleaves\r\nInterleave, duration                     : 33 ms (1.00 video frame)\r\nInterleave, preload duration             : 500 ms\r\n\r\nScreens: \nhttp://i6.imageban.ru/out/2015/09/23/3893822bdc04f588cc1f6fb063735072.png \nhttp://i1.imageban.ru/out/2015/09/23/dd71a02486a3e301ad663b13f7fe77d1.png \nhttp://i6.imageban.ru/out/2015/09/23/ab46fadb3c432d2c457dfe66aef17cee.png \nhttp://i1.imageban.ru/out/2015/09/23/4a89274f71553a575ac6892612cf34bc.png","torrent":{"xt":"urn:btih:e63e7235ac2e483e1075e2702203a46e23563c08","amp;dn":"Maze+Runner%3A+The+Scorch+Trials+%282015%29+CAMRip+%2AProper%2A+%5BRUS%5D","amp;tr":["udp%3A%2F%2Ftracker.leechers-paradise.org%3A6969","udp%3A%2F%2Fzer0day.ch%3A1337","udp%3A%2F%2Fopen.demonii.com%3A1337","udp%3A%2F%2Ftracker.coppersurfer.tk%3A6969","udp%3A%2F%2Fexodus.desync.com%3A6969"],"infoHash":"e63e7235ac2e483e1075e2702203a46e23563c08","infoHashBuffer":{"type":"Buffer","data":[230,62,114,53,172,46,72,62,16,117,226,112,34,3,164,110,35,86,60,8]},"announce":[],"urlList":[]}}